<?xml version="1.0" encoding="utf-8"?>
<!-- Generator: Adobe Illustrator 24.0.2, SVG Export Plug-In . SVG Version: 6.00 Build 0)  -->
<svg version="1.1" id="Capa_1" xmlns="http://www.w3.org/2000/svg" xmlns:xlink="http://www.w3.org/1999/xlink" x="0px" y="0px"
	 viewBox="0 0 480 190" style="enable-background:new 0 0 480 190;" xml:space="preserve">
<style type="text/css">
	.st0{fill:#FFFFFF;}
</style>
<g>
	<g>
		<polygon class="st0" points="324.7,52.4 305.8,32.9 287.4,68.9 		"/>
		<path class="st0" d="M62.4,137.6l-3.7-10.5H30.8L27,137.6H1.8l31.4-74.3h25.2l30.2,74.3H62.4z M37.2,109.6h15.5L45,87.9
			L37.2,109.6z"/>
		<path class="st0" d="M184.4,148.1c-2.8,2.5-6.3,4.5-10.5,6c-4.2,1.5-8.2,2.3-12.1,2.3c-5.4,0-10.3-1.5-14.5-4.6
			c-4.2-3.1-7.4-7.3-9.4-12.6c-7.3-0.4-13.9-2.3-19.7-5.7c-5.8-3.5-10.3-8.1-13.6-13.8c-3.2-5.8-4.9-12.2-4.9-19.3
			c0-7.4,1.7-14.1,5.2-19.9c3.5-5.9,8.3-10.4,14.6-13.7c6.2-3.3,13.2-4.9,21-4.9c7.8,0,14.8,1.7,21,5c6.2,3.3,11.1,7.9,14.6,13.8
			c3.5,5.9,5.2,12.5,5.2,19.8c0,8-2,15.1-6.1,21.3c-4.1,6.3-9.6,10.9-16.6,13.9c1.7,2,3.6,3.1,5.8,3.1c1.5,0,3.3-0.5,5.5-1.4
			c2.2-0.9,4.3-2.2,6.4-3.7L184.4,148.1z M127.1,109.8c1.4,2.8,3.4,5,5.8,6.6c2.4,1.6,5.1,2.4,7.9,2.4c2.8,0,5.4-0.8,7.7-2.4
			c2.3-1.6,4.2-3.8,5.5-6.6c1.3-2.8,2-6,2-9.4c0-3.5-0.7-6.6-2-9.4c-1.3-2.8-3.2-5-5.5-6.5c-2.3-1.6-4.9-2.3-7.7-2.3
			c-2.8,0-5.5,0.8-7.9,2.4c-2.4,1.6-4.4,3.8-5.8,6.5c-1.4,2.8-2.2,5.9-2.2,9.3C124.9,103.9,125.6,107.1,127.1,109.8"/>
		<path class="st0" d="M225.5,115.5c2.1,2.3,4.7,3.4,7.6,3.4c2.9,0,5.3-1.1,7.2-3.3c1.9-2.2,2.9-5.1,2.9-8.7V63.4h24.6v43.4
			c0,6.5-1.4,12.2-4.3,17.1c-2.9,4.9-6.9,8.7-12.1,11.4c-5.2,2.7-11.3,4-18.3,4c-7,0-13.2-1.3-18.5-4c-5.3-2.7-9.5-6.5-12.4-11.4
			c-2.9-4.9-4.4-10.6-4.4-17.1V63.4h24.6v43.4C222.4,110.4,223.4,113.2,225.5,115.5"/>
		<polygon class="st0" points="287.9,75 312.5,64 312.5,137.6 287.9,137.6 		"/>
		<g>
			<polygon class="st0" points="52.9,34 37.4,34 45,55.7 			"/>
		</g>
		<g>
			<polygon class="st0" points="52.9,0.6 37.4,0.6 45,22.3 			"/>
		</g>
	</g>
	<g>
		<polygon class="st0" points="214.9,156.5 197.8,156.5 197.8,160 204.5,160 204.5,178.2 208.2,178.2 208.2,160 214.9,160 		"/>
		<path class="st0" d="M221.7,161.5c-1.6,0-3,0.4-4.3,1.1c-1.3,0.7-2.2,1.7-2.9,3c-0.7,1.3-1,2.7-1,4.3c0,1.6,0.4,3.1,1,4.3
			c0.7,1.3,1.7,2.3,3,3c1.3,0.7,2.7,1,4.3,1c1.4,0,2.7-0.2,3.8-0.7c1.1-0.5,2.1-1.2,2.9-2l0.3-0.3l-2.1-2.2l-0.3,0.3
			c-0.5,0.6-1.2,1-2,1.3s-1.6,0.5-2.4,0.5c-1.3,0-2.4-0.4-3.3-1.1c-0.8-0.7-1.3-1.5-1.5-2.6h12.3l0-0.4c0-0.2,0-0.5,0-0.9
			c0-2.7-0.7-4.8-2-6.3C226.2,162.2,224.2,161.5,221.7,161.5z M226.1,168.4h-9c0.2-1.1,0.7-1.9,1.4-2.6c0.8-0.8,1.9-1.1,3.2-1.1
			c1.3,0,2.4,0.4,3.2,1.1C225.5,166.4,226,167.3,226.1,168.4z"/>
		<path class="st0" d="M245.4,162.4c-0.6,0.4-1.1,0.8-1.5,1.4v-2.3h-3.6v16.6h3.6l0-8.7c0.1-1.4,0.6-2.5,1.6-3.3
			c0.9-0.8,2.1-1.2,3.6-1.1l0.4,0v-3.6l-0.4,0C247.6,161.5,246.4,161.8,245.4,162.4z"/>
		<path class="st0" d="M258.3,161.5c-1.6,0-3,0.4-4.3,1.1c-1.3,0.7-2.2,1.7-2.9,3c-0.7,1.3-1,2.7-1,4.3c0,1.6,0.4,3.1,1,4.3
			c0.7,1.3,1.7,2.3,3,3c1.3,0.7,2.7,1,4.3,1c1.4,0,2.7-0.2,3.8-0.7c1.1-0.5,2.1-1.2,2.9-2l0.3-0.3l-2.1-2.2l-0.3,0.3
			c-0.5,0.6-1.2,1-2,1.3c-0.7,0.3-1.6,0.5-2.4,0.5c-1.3,0-2.4-0.4-3.3-1.1c-0.8-0.7-1.3-1.5-1.5-2.6h12.3l0-0.4c0-0.2,0-0.5,0-0.9
			c0-2.7-0.7-4.8-2-6.3C262.8,162.2,260.9,161.5,258.3,161.5z M262.7,168.4h-9c0.2-1.1,0.7-1.9,1.4-2.6c0.8-0.8,1.9-1.1,3.2-1.1
			c1.3,0,2.4,0.4,3.2,1.1C262.2,166.4,262.6,167.3,262.7,168.4z"/>
		<path class="st0" d="M280.4,173.2c-0.5,0.6-1.1,1-1.9,1.3c-1.5,0.6-3.6,0.7-5-0.2c-0.7-0.4-1.3-1-1.7-1.8
			c-0.4-0.8-0.6-1.7-0.6-2.7s0.2-1.9,0.6-2.7c0.4-0.8,1-1.4,1.7-1.8c0.7-0.4,1.6-0.6,2.5-0.6c1.6,0,3,0.6,4.2,1.7l0.3,0.3l2-2.6
			l-0.3-0.3c-0.8-0.8-1.7-1.5-2.8-1.9c-1.1-0.4-2.4-0.6-3.7-0.6c-1.6,0-3,0.4-4.3,1.1c-1.3,0.7-2.2,1.7-2.9,3c-0.7,1.3-1,2.7-1,4.3
			c0,1.6,0.4,3.1,1,4.3c0.7,1.3,1.7,2.3,2.9,3c1.2,0.7,2.7,1.1,4.3,1.1c1.4,0,2.8-0.3,3.9-0.8c1.2-0.5,2.1-1.2,2.9-2.2l0.2-0.3
			l-2.2-2.2L280.4,173.2z"/>
		<path class="st0" d="M296.5,162.5c-1.3-0.7-2.8-1.1-4.4-1.1c-1.7,0-3.1,0.4-4.4,1.1c-1.3,0.7-2.3,1.7-3,3s-1.1,2.7-1.1,4.3
			c0,1.6,0.4,3.1,1.1,4.4c0.7,1.3,1.7,2.3,3,3c1.3,0.7,2.8,1.1,4.4,1.1c1.6,0,3.1-0.4,4.4-1.1c1.3-0.7,2.3-1.7,3-3
			c0.7-1.3,1.1-2.7,1.1-4.3c0-1.6-0.4-3.1-1.1-4.3C298.8,164.3,297.7,163.2,296.5,162.5z M296.9,169.9c0,1-0.2,1.9-0.6,2.7
			c-0.4,0.8-1,1.4-1.7,1.8c-1.5,0.9-3.6,0.8-5,0c-0.7-0.4-1.3-1-1.7-1.8c-0.4-0.8-0.6-1.7-0.6-2.7c0-1,0.2-1.9,0.6-2.7
			c0.4-0.8,1-1.4,1.7-1.8c0.7-0.4,1.6-0.7,2.5-0.7c0.9,0,1.8,0.2,2.5,0.7c0.7,0.4,1.3,1,1.7,1.8C296.7,168,296.9,168.9,296.9,169.9z
			"/>
		<path class="st0" d="M312.7,161.5c-2.5,0-4.3,0.8-5.5,2.3v-2.3h-3.6v16.6h3.6l0-8.8c0.1-1.3,0.6-2.4,1.4-3.2
			c0.8-0.8,1.8-1.2,3.1-1.2c1.2,0,2.1,0.3,2.8,1c0.7,0.7,1,1.6,1,2.8v9.4h3.6V168c0-2-0.6-3.6-1.7-4.8
			C316.3,162.1,314.7,161.5,312.7,161.5z"/>
		<path class="st0" d="M334.5,162.5c-1.3-0.7-2.8-1.1-4.4-1.1c-1.7,0-3.1,0.4-4.4,1.1c-1.3,0.7-2.3,1.7-3,3s-1.1,2.7-1.1,4.3
			c0,1.6,0.4,3.1,1.1,4.4c0.7,1.3,1.7,2.3,3,3c1.3,0.7,2.8,1.1,4.4,1.1c1.6,0,3.1-0.4,4.4-1.1c1.3-0.7,2.3-1.7,3-3
			c0.7-1.3,1.1-2.7,1.1-4.3c0-1.6-0.4-3.1-1.1-4.3C336.8,164.3,335.8,163.2,334.5,162.5z M335,169.9c0,1-0.2,1.9-0.6,2.7
			c-0.4,0.8-1,1.4-1.7,1.8c-1.5,0.9-3.6,0.8-5,0c-0.7-0.4-1.3-1-1.7-1.8c-0.4-0.8-0.6-1.7-0.6-2.7c0-1,0.2-1.9,0.6-2.7
			c0.4-0.8,1-1.4,1.7-1.8c0.7-0.4,1.6-0.7,2.5-0.7c0.9,0,1.8,0.2,2.5,0.7c0.7,0.4,1.3,1,1.7,1.8C334.8,168,335,168.9,335,169.9z"/>
		<path class="st0" d="M352.9,173.2c-0.5,0.6-1.1,1-1.9,1.3c-1.5,0.6-3.6,0.7-5-0.2c-0.7-0.4-1.3-1-1.7-1.8
			c-0.4-0.8-0.6-1.7-0.6-2.7s0.2-1.9,0.6-2.7c0.4-0.8,1-1.4,1.7-1.8c0.7-0.4,1.6-0.6,2.5-0.6c1.6,0,3,0.6,4.2,1.7l0.3,0.3l2-2.6
			L355,164c-0.8-0.8-1.7-1.5-2.8-1.9c-1.1-0.4-2.4-0.6-3.7-0.6c-1.6,0-3,0.4-4.3,1.1c-1.3,0.7-2.2,1.7-2.9,3c-0.7,1.3-1,2.7-1,4.3
			c0,1.6,0.4,3.1,1,4.3c0.7,1.3,1.7,2.3,2.9,3c1.2,0.7,2.7,1.1,4.3,1.1c1.4,0,2.8-0.3,3.9-0.8c1.2-0.5,2.1-1.2,2.9-2.2l0.2-0.3
			l-2.2-2.2L352.9,173.2z"/>
		<path class="st0" d="M364.4,161.5c-1.6,0-3,0.4-4.3,1.1c-1.3,0.7-2.2,1.7-2.9,3c-0.7,1.3-1,2.7-1,4.3c0,1.6,0.4,3.1,1,4.3
			c0.7,1.3,1.7,2.3,3,3c1.3,0.7,2.7,1,4.3,1c1.4,0,2.7-0.2,3.8-0.7c1.1-0.5,2.1-1.2,2.9-2l0.3-0.3l-2.1-2.2l-0.3,0.3
			c-0.5,0.6-1.2,1-2,1.3c-0.7,0.3-1.6,0.5-2.4,0.5c-1.3,0-2.4-0.4-3.3-1.1c-0.8-0.7-1.3-1.5-1.5-2.6h12.3l0-0.4c0-0.2,0-0.5,0-0.9
			c0-2.7-0.7-4.8-2-6.3C369,162.2,367,161.5,364.4,161.5z M368.9,168.4h-9c0.2-1.1,0.7-1.9,1.4-2.6c0.8-0.8,1.9-1.1,3.2-1.1
			c1.3,0,2.4,0.4,3.2,1.1C368.3,166.4,368.7,167.3,368.9,168.4z"/>
		<path class="st0" d="M395.9,161.5c-2.9,0-4.9,1.1-6.1,3.2c-0.4-0.9-1-1.6-1.7-2.1c-1-0.7-2.3-1.1-3.9-1.1c-2.4,0-4.2,0.8-5.4,2.3
			v-2.2h-3.6v16.6h3.6V170c0-1.5,0.4-2.7,1.2-3.6c0.8-0.9,1.8-1.4,3.2-1.4c1.2,0,2.1,0.3,2.7,1c0.6,0.7,1,1.6,1,2.8v9.4h3.7V170
			c0-1.5,0.4-2.7,1.2-3.6c0.8-0.9,1.8-1.4,3.2-1.4c1.2,0,2,0.3,2.7,1c0.7,0.7,1,1.6,1,2.8v9.4h3.7V168c0-2-0.6-3.6-1.7-4.8
			C399.4,162.1,397.8,161.5,395.9,161.5z"/>
		<path class="st0" d="M417.6,162.5c-1.3-0.7-2.8-1.1-4.4-1.1c-1.7,0-3.1,0.4-4.4,1.1c-1.3,0.7-2.3,1.7-3,3s-1.1,2.7-1.1,4.3
			c0,1.6,0.4,3.1,1.1,4.4c0.7,1.3,1.7,2.3,3,3c1.3,0.7,2.8,1.1,4.4,1.1c1.6,0,3.1-0.4,4.4-1.1c1.3-0.7,2.3-1.7,3-3
			c0.7-1.3,1.1-2.7,1.1-4.3c0-1.6-0.4-3.1-1.1-4.3C419.9,164.3,418.9,163.2,417.6,162.5z M418,169.9c0,1-0.2,1.9-0.6,2.7
			c-0.4,0.8-1,1.4-1.7,1.8c-1.5,0.9-3.6,0.8-5,0c-0.7-0.4-1.3-1-1.7-1.8c-0.4-0.8-0.6-1.7-0.6-2.7c0-1,0.2-1.9,0.6-2.7
			c0.4-0.8,1-1.4,1.7-1.8c0.7-0.4,1.6-0.7,2.5-0.7c0.9,0,1.8,0.2,2.5,0.7c0.7,0.4,1.3,1,1.7,1.8C417.8,168,418,168.9,418,169.9z"/>
		<path class="st0" d="M432.8,169c-0.7-0.3-1.6-0.7-2.7-1c-1.1-0.3-1.9-0.6-2.5-1c-0.4-0.3-0.6-0.6-0.6-1.1c0-0.5,0.2-0.8,0.6-1
			c0.8-0.5,2.3-0.5,3.9-0.1c0.7,0.2,1.4,0.5,2.1,0.9l0.4,0.2l1.4-2.9L435,163c-0.7-0.5-1.6-0.9-2.5-1.1c-1-0.3-1.9-0.4-2.9-0.4
			c-1.7,0-3.1,0.4-4.3,1.2c-1.2,0.8-1.8,2-1.8,3.7c0,1,0.3,1.9,0.8,2.6c0.5,0.6,1.1,1.1,1.9,1.5c0.7,0.3,1.6,0.6,2.6,0.9
			c1.1,0.3,2,0.7,2.6,1c0.5,0.3,0.7,0.7,0.7,1.2c0,0.5-0.2,0.9-0.6,1.2c-1,0.6-2.9,0.6-4.6-0.1c-0.9-0.3-1.7-0.8-2.3-1.3l-0.4-0.4
			l-1.4,2.8l0.2,0.2c0.8,0.7,1.8,1.3,2.9,1.7c1.1,0.4,2.3,0.6,3.5,0.6c1.7,0,3.2-0.4,4.4-1.2c1.2-0.9,1.9-2.1,1.9-3.7
			c0-1.1-0.3-2-0.8-2.7C434.2,169.9,433.6,169.4,432.8,169z"/>
		<path class="st0" d="M477.6,154.3c0.7-1.5,1.1-3.9-0.4-5.4c-0.7-0.8-1.7-1.2-3.1-1.3c-2.7-0.2-5.5,0.7-8.3,3
			c-0.1-1.5-0.5-3.1-1.2-4.5c-0.6-1.2-1.2-2-2-2.6c-1.1-0.8-2.4-1-3.5-0.6c-1.4,0.6-2.3,2-2.6,4.3c-0.3,2.1-0.4,4.3-0.3,6.5
			c0,0.6,0.1,1.3,0.2,2c-0.7-0.2-1.4-0.4-2.2-0.5c-2.8-0.3-6.5,0.3-7.8,3.2c-0.5,1.1-0.4,2.6,0.7,3.3c0.5,0.3,1.1,0.4,1.6,0.4
			c2.3,0.1,4.6-0.2,6.8-0.7c-0.9,0.7-1.7,1.5-2.4,2.5c-1.7,2.4-2.2,5.5-1.4,8.3c0.2,0.6,0.6,1.6,1.4,2c0.4,0.2,0.8,0.3,1.2,0.3
			c0.7,0,1.4-0.3,2.2-0.7c2-1.2,3.7-2.8,5-4.7c0.5,4.1,0.7,7.9,0.6,12c0,0,0,0,0,0l-0.1,0.3l0.1,0.3c-0.1,2.3-0.2,4.8-0.3,7.6
			l1.7,0.1c0.1-2,0.2-3.8,0.2-5.6c1,0.8,2.2,1.3,3.6,1.3c0,0,0,0,0,0c1.3,0,2.6-0.5,3.7-1c1.2-0.6,3-1.5,4.4-2.9
			c1.4-1.5,2.1-3.4,2-5.2l-0.1-0.9l-4.6,0.4c-2,0.2-4.1,0.3-6,1.1c-1.1,0.4-2.1,1.1-2.9,1.8c0-2.8-0.2-5.5-0.5-8.3
			c0.2,0.3,0.3,0.6,0.6,0.9c1.4,1.8,2.9,2.7,4.4,2.6c1.4,0,2.5-0.8,3.4-1.4c1.1-0.8,2.4-1.6,3.3-2.9c1.1-1.5,1.5-3.2,1-4.7
			c-0.6-1.8-2.2-2.8-3.4-3.5c-0.7-0.4-1.5-0.7-2.3-1C473.8,159,476.3,156.9,477.6,154.3z M467.4,178.3c1.7-0.7,3.7-0.8,5.5-1
			l2.7-0.2c-0.1,1-0.7,2.1-1.5,3c-0.9,1-2.1,1.8-3.9,2.5c-0.9,0.4-1.9,0.8-3,0.8c0,0,0,0,0,0c-1.4,0-2.8-0.8-3.5-2.1
			C464.4,180.1,465.7,179,467.4,178.3z M458.3,147.5c0.2-1.7,0.8-2.6,1.5-3c0.5-0.2,1.3-0.1,1.9,0.4c0.5,0.4,1,1,1.4,1.9
			c0.8,1.6,1.1,3.5,1,5.3c-0.3,0.3-0.6,0.6-0.9,1c-1.1,1.2-2.5,2.8-3.4,4.7c-0.2,0.2-0.4,0.4-0.5,0.6c-0.1,0-0.1,0.1-0.2,0.1
			c0,0,0,0,0,0c0-0.1-0.1-0.2-0.1-0.3l0.6-0.6c-0.3-0.4-0.7-0.7-1.1-1c-0.3-1.1-0.4-2.2-0.4-3C457.9,151.6,458,149.5,458.3,147.5z
			 M463.5,155.3c-0.4,1.1-0.9,2.2-1.6,3.2c-0.2,0-0.3,0-0.5,0c0-0.1,0-0.1,0.1-0.2l0-0.1C462,157.2,462.7,156.3,463.5,155.3z
			 M448.7,160.4c-0.2,0-0.5,0-0.7-0.1c-0.2-0.1-0.2-0.7,0-1.1c0.8-1.7,2.9-2.3,4.8-2.3c0.4,0,0.8,0,1.2,0.1c1.1,0.1,2.1,0.4,2.9,0.8
			c0.1,0.4,0.3,0.9,0.5,1.3C454.6,160,451.7,160.5,448.7,160.4z M460.2,167.9c-1.2,1.8-2.8,3.3-4.6,4.4c-0.4,0.3-1.2,0.7-1.7,0.4
			c-0.2-0.1-0.4-0.5-0.6-1c-0.7-2.3-0.3-4.9,1.1-6.8c0.9-1.3,2.2-2.3,3.5-3.3c0.2-0.2,0.4-0.3,0.6-0.5l0.1,0c0,0,0,0,0,0
			c0,0.3-0.1,0.6-0.1,0.8l-0.1,1.7l1.4-0.9c0.1,0,0.1-0.1,0.2-0.1c0.2,1,0.5,1.9,0.8,2.8c0.1,0.3,0.1,0.6,0.2,1
			C460.9,166.9,460.6,167.4,460.2,167.9z M471.8,162.8c0.9,0.5,2.2,1.3,2.6,2.5c0.4,1.1-0.2,2.3-0.7,3.1c-0.8,1-1.9,1.8-2.9,2.5
			c-0.9,0.6-1.7,1.1-2.5,1.1c-1,0-2-0.6-3-2c-0.9-1.2-1.7-2.4-2.3-3.8c0.3-0.8,0.4-1.6,0.5-2.3c0-0.9-0.1-1.7-0.4-2.4
			c1.4,0,2.8-0.1,4.1-0.4c0,0,0.1,0,0.1,0C468.9,161.4,470.4,162,471.8,162.8z M467.4,159.3c-1.2-0.3-2.3-0.5-3.5-0.6
			c1-1.7,1.7-3.7,1.9-5.8c2.8-2.6,5.5-3.8,8.2-3.6c0.6,0.1,1.5,0.2,2,0.8c0.8,0.8,0.6,2.4,0.1,3.5
			C474.2,157.4,469.7,158.8,467.4,159.3z"/>
	</g>
</g>
</svg>
