<?xml version="1.0" encoding="utf-8"?>
<!-- Generator: Adobe Illustrator 24.0.2, SVG Export Plug-In . SVG Version: 6.00 Build 0)  -->
<svg version="1.1" id="Capa_1" xmlns="http://www.w3.org/2000/svg" xmlns:xlink="http://www.w3.org/1999/xlink" x="0px" y="0px"
	 viewBox="0 0 800 220" style="enable-background:new 0 0 800 220;" xml:space="preserve">
<style type="text/css">
	.st0{fill:#FFFFFF;}
	.st1{fill:#009999;}
</style>
<g>
	<g>
		<path class="st0" d="M615.8,29.6c-3.1,0-5.7-0.5-8-1.4c-2.3-0.9-4.2-1.9-5.8-2.8c-2-1.1-3.7-1.9-5.1-2.4c-1.4-0.5-2.7-0.7-3.8-0.7
			c-1.3,0-2.4,0.2-3.4,0.7c-1,0.5-2,1.4-3.1,3c-1.1,1.4-2.4,2.5-3.9,3.2c-1.5,0.7-3.2,0.6-4.9-0.2c-1.3-0.6-2-1.8-2.3-3.5
			c-0.3-1.7,0.1-3.3,1.1-4.7c2.1-3.1,4.6-5.4,7.6-6.9c3-1.5,6.3-2.3,9.8-2.3c2.9,0,5.4,0.5,7.6,1.4c2.2,0.9,4.1,1.8,5.6,2.6
			c2.1,1.2,3.6,2,4.7,2.4c1.1,0.5,2.2,0.7,3.4,0.7c1.2,0,2.2-0.2,3.1-0.7c0.9-0.4,1.7-1,2.3-1.6c1.3-1.3,2.5-2.1,3.7-2.6
			c1.2-0.5,2.6-0.2,4.3,0.7c1.4,0.8,2.1,2.1,2.2,3.9c0.1,1.8-0.4,3.4-1.6,4.9C626.1,27.5,621.5,29.6,615.8,29.6z"/>
		<path class="st0" d="M631.1,124.3V57.6h-30.6v29.1c-11.7-14.2-20.4-24.8-22.9-27.5c-10.1-11.1-23.1-8.2-33.1,3.3
			c-10,11.5-73.6,89.2-73.6,89.2c-21.2,23.6,1.2,55.4,1.2,55.4l89.5-108.4c0,0,40,49.5,63.6,77.7c23.6,28.3,49.1,31.9,70.3,27.2
			C695.4,203.8,663.4,164.1,631.1,124.3z"/>
	</g>
	<g>
		<path class="st1" d="M739.2,62c-2.5-2.5-5.9-3.8-10.1-3.8c-4,0-7.3,1.3-9.9,3.8c-2.6,2.5-3.9,5.9-3.9,10.1v76.8
			c0,6.5-1.8,12.4-5.4,17.7c-3.6,5.3-8.5,9.4-14.6,12.5c-4.1,2.1-8.5,3.4-13.4,4.1c6.6,8.1,12.1,14.9,15.9,19.7
			c1.1-0.5,2.2-1.2,3.7-2c5.2-2.9,9.8-6.3,13.8-10.3v2.9c0,4,1.3,7.3,3.9,9.9c2.6,2.6,5.9,3.9,9.9,3.9c4.2,0,7.5-1.3,10.1-3.9
			c2.5-2.6,3.8-5.9,3.8-9.9V72.1C743,67.9,741.7,64.5,739.2,62z"/>
		<path class="st1" d="M241.1,63.9c-8-4.5-17.2-6.8-27.5-6.8c-11.8,0-22.3,2.5-31.5,7.6c-6.5,3.6-11.9,8.2-16.3,13.7
			c-4.1-6.1-9.2-11-15.4-14.5c-8-4.5-17.2-6.8-27.5-6.8c-10.7,0-20.2,2.5-28.6,7.6c-3.5,2.1-6.7,4.6-9.5,7.5c-0.1-4-1.3-7.2-3.8-9.6
			c-2.5-2.5-5.9-3.8-10.1-3.8c-4,0-7.3,1.3-9.9,3.8c-2.6,2.5-3.9,5.9-3.9,10.1v121.2c0,4,1.3,7.3,3.9,9.9c2.6,2.6,5.9,3.9,9.9,3.9
			c4.2,0,7.5-1.3,10.1-3.9c2.5-2.6,3.8-5.9,3.8-9.9V117c0-10.2,3.1-18.5,9.3-25.1c6.2-6.5,14-9.8,23.4-9.8c9.1,0,16.4,2.8,22.1,8.3
			c5.6,5.5,8.4,14,8.4,25.5v77.9c0,4,1.3,7.3,3.9,9.9c2.6,2.6,5.9,3.9,9.9,3.9c4.2,0,7.5-1.3,10.1-3.9c2.5-2.6,3.8-5.9,3.8-9.9V117
			c0-10.2,3-18.5,9.1-25.1c6.1-6.5,13.8-9.8,23.3-9.8c9.1,0,16.4,2.8,22.1,8.3c5.6,5.5,8.4,14,8.4,25.5v77.9c0,4,1.3,7.3,3.9,9.9
			c2.6,2.6,5.9,3.9,9.9,3.9c4.2,0,7.5-1.3,10.1-3.9c2.5-2.6,3.8-5.9,3.8-9.9v-77.9c0-12.5-2.2-23.2-6.7-32
			C255.3,75.1,249.1,68.4,241.1,63.9z"/>
		<path class="st1" d="M407.5,67.3c-11.3-6.6-24-9.9-38.1-9.9c-14.2,0-26.9,3.3-38.3,9.9c-11.3,6.6-20.3,15.7-27,27.1
			c-6.6,11.4-9.9,24.3-9.9,38.7c0,14.3,3,27.2,9.1,38.5c6.1,11.3,14.4,20.3,24.9,27c10.5,6.6,22.4,9.9,35.7,9.9
			c13.3,0,25.1-3.3,35.7-9.9c6.5-4.1,12.1-9,16.9-14.9v10.1c0,4,1.3,7.3,3.9,9.9c2.6,2.6,5.9,3.9,9.9,3.9c4,0,7.3-1.3,9.9-3.9
			c2.6-2.6,3.9-5.9,3.9-9.9v-60.7c0-14.3-3.3-27.2-9.9-38.7C427.7,83,418.8,73.9,407.5,67.3z M411.3,159.1
			c-4.2,7.7-9.9,13.8-17.2,18.2c-7.3,4.5-15.5,6.7-24.8,6.7c-9.1,0-17.3-2.2-24.6-6.7c-7.4-4.4-13.2-10.5-17.4-18.2
			c-4.3-7.7-6.4-16.4-6.4-26c0-9.8,2.1-18.6,6.4-26.3c4.3-7.7,10.1-13.8,17.4-18.2c7.4-4.4,15.6-6.7,24.6-6.7
			c9.3,0,17.5,2.2,24.8,6.7c7.3,4.5,13,10.5,17.2,18.2c4.2,7.7,6.3,16.5,6.3,26.3C417.6,142.7,415.5,151.4,411.3,159.1z"/>
	</g>
</g>
</svg>
