<?xml version="1.0" encoding="utf-8"?>
<!-- Generator: Adobe Illustrator 24.0.2, SVG Export Plug-In . SVG Version: 6.00 Build 0)  -->
<svg version="1.1" id="Capa_1" xmlns="http://www.w3.org/2000/svg" xmlns:xlink="http://www.w3.org/1999/xlink" x="0px" y="0px"
	 viewBox="0 0 128 128" style="enable-background:new 0 0 128 128;" xml:space="preserve">
<style type="text/css">
	.st0{fill:#FFFFFF;}
</style>
<path class="st0" d="M64,1.5C29.6,1.5,1.6,29.5,1.6,64c0,34.5,28,62.5,62.4,62.5c34.4,0,62.4-28.1,62.4-62.5
	C126.4,29.5,98.4,1.5,64,1.5z M100.7,112c-2.3-0.9-4.6-1.6-6.7-2.9c-0.8-0.1-1.6-0.3-2.2-1c-0.4-0.1-0.8-0.4-1.2-0.5
	c-1.2-0.3-2.2-0.9-3-1.9c-0.5-0.3-1-0.6-1.4-0.9c-0.6-0.3-0.9-0.7-1-1.4c-0.2-0.9-0.5-1.8-0.7-2.6c-0.3-0.9-0.3-1.8-0.5-2.7
	c-0.1-0.5-0.2-0.9-0.8-1.1c-0.5-0.3-1.1,0-1.6,0.1c-1,0.2-1.6-0.1-1.8-1.2c-0.1-0.8-0.3-1.6-0.4-2.4c-0.1-1.7-0.4-3.6,1.3-4.9
	c2-3.9,3.4-8.1,4.6-12.3c0.3-1,0.7-1.8,2-1.8c0.8,0,1.4-0.6,1.6-1.4c0.8-2.5,1.5-5,2.6-7.3c0.4-1.7,1.2-3.3,1.3-5.1
	c0-0.4,0.1-0.7,0-1.1c0-0.1-0.1-0.3-0.2-0.4c-0.1,0-0.1-0.1-0.2-0.1c0-0.8,0.1-1.5,0.1-2.3c0-1.1-0.6-1.9-1.6-2.2
	c-1-0.3-1.1-0.8-1.1-1.6c0.2-3.3,0.4-6.7,0.6-10c0-0.1,0-0.2,0-0.3c0-0.1,0-0.1,0-0.2c-0.1-1-0.2-2-0.3-3c-0.3-2.4-0.5-4.9-1.8-7
	c-2.5-4.1-5.9-7.3-10.2-9.5c-3.6-1.8-7.6-2.8-11.5-3.6c-8.2-1.6-15.6,0.2-22,5.6c0,0.1,0,0.1,0,0.2c-0.7,0.5-1.3,1.1-1.7,1.8
	c-0.8,1.4-1.9,2.6-3,3.7c-2.1,2-3.3,4.3-3,7.3c-0.1,0-0.2,0.1-0.2,0.1c-0.1,0.1-0.2,0.2-0.3,0.4c-0.5,2.4,0.1,4.8,0.1,7.2
	c0.6,2,0.6,4.1,0.8,6.2c0.1,1.1-0.2,1.9-1.3,2.3c-1.4,0.5-2,1.6-2.1,3c-0.2,1.4-0.2,2.8,0.2,4.2c0.5,2,1.1,3.9,1.7,5.9
	c1,1.6,1.6,3.5,2,5.3c0.2,1.2,0.8,1.9,1.8,2.3c0.9,0.3,1.4,0.9,1.6,1.8c0.3,1.4,0.9,2.8,1.3,4.2c0.5,1.1,1.3,2.1,1.4,3.5
	c0,0.1,0,0.3,0.1,0.4c2.4,3.9,3.7,7.9,2.1,12.5c-0.8,0.9-1.6,0-2.5-0.1c-0.8,0-1.5-0.1-1.7,0.9c-0.6,2-1,4-1.6,6
	c-0.3,1.1-0.9,1.9-1.9,2.4c-2.3,1.1-4.5,2.2-7,2.9c-1.5,1.1-3.4,1.5-5.1,2.1C12.5,100.2,3.6,83.1,3.6,64C3.6,30.6,30.7,3.5,64,3.5
	c33.3,0,60.4,27.2,60.4,60.5C124.4,83.6,115.1,101,100.7,112z"/>
</svg>
